<mxfile host="app.diagrams.net" modified="2022-11-28T17:09:30.427Z" agent="5.0 (Windows)" etag="kCf5uf1eHznqijmpLSde" version="20.6.0" type="github">
  <diagram id="C5RBs43oDa-KdzZeNtuy" name="Page-1">
    <mxGraphModel dx="1182" dy="722" grid="1" gridSize="10" guides="1" tooltips="1" connect="1" arrows="1" fold="1" page="1" pageScale="1" pageWidth="827" pageHeight="1169" math="0" shadow="0">
      <root>
        <mxCell id="WIyWlLk6GJQsqaUBKTNV-0" />
        <mxCell id="WIyWlLk6GJQsqaUBKTNV-1" parent="WIyWlLk6GJQsqaUBKTNV-0" />
        <mxCell id="mra5QQwehXixs7kkUrkd-2" value="" style="edgeStyle=orthogonalEdgeStyle;rounded=0;orthogonalLoop=1;jettySize=auto;html=1;entryX=0.5;entryY=0;entryDx=0;entryDy=0;" edge="1" parent="WIyWlLk6GJQsqaUBKTNV-1" source="mra5QQwehXixs7kkUrkd-0" target="mra5QQwehXixs7kkUrkd-3">
          <mxGeometry relative="1" as="geometry">
            <mxPoint x="155" y="230" as="targetPoint" />
          </mxGeometry>
        </mxCell>
        <mxCell id="mra5QQwehXixs7kkUrkd-9" style="edgeStyle=orthogonalEdgeStyle;rounded=0;orthogonalLoop=1;jettySize=auto;html=1;" edge="1" parent="WIyWlLk6GJQsqaUBKTNV-1" source="mra5QQwehXixs7kkUrkd-0" target="mra5QQwehXixs7kkUrkd-8">
          <mxGeometry relative="1" as="geometry" />
        </mxCell>
        <mxCell id="mra5QQwehXixs7kkUrkd-0" value="&lt;div&gt;User&lt;/div&gt;&lt;div&gt;&lt;br&gt;&lt;/div&gt;" style="shape=umlActor;html=1;verticalLabelPosition=bottom;verticalAlign=top;align=center;" vertex="1" parent="WIyWlLk6GJQsqaUBKTNV-1">
          <mxGeometry x="265" y="60" width="30" height="60" as="geometry" />
        </mxCell>
        <mxCell id="mra5QQwehXixs7kkUrkd-1" value="&lt;div&gt;Technical User&lt;/div&gt;&lt;div&gt;&lt;br&gt;&lt;/div&gt;" style="shape=umlActor;html=1;verticalLabelPosition=bottom;verticalAlign=top;align=center;" vertex="1" parent="WIyWlLk6GJQsqaUBKTNV-1">
          <mxGeometry x="640" y="70" width="30" height="60" as="geometry" />
        </mxCell>
        <mxCell id="mra5QQwehXixs7kkUrkd-13" style="edgeStyle=orthogonalEdgeStyle;rounded=0;orthogonalLoop=1;jettySize=auto;html=1;entryX=0.5;entryY=0;entryDx=0;entryDy=0;" edge="1" parent="WIyWlLk6GJQsqaUBKTNV-1" source="mra5QQwehXixs7kkUrkd-3" target="mra5QQwehXixs7kkUrkd-10">
          <mxGeometry relative="1" as="geometry" />
        </mxCell>
        <mxCell id="mra5QQwehXixs7kkUrkd-3" value="Static Browsing" style="ellipse;whiteSpace=wrap;html=1;" vertex="1" parent="WIyWlLk6GJQsqaUBKTNV-1">
          <mxGeometry x="324" y="240" width="140" height="70" as="geometry" />
        </mxCell>
        <mxCell id="mra5QQwehXixs7kkUrkd-7" style="edgeStyle=orthogonalEdgeStyle;rounded=0;orthogonalLoop=1;jettySize=auto;html=1;entryX=1;entryY=0.5;entryDx=0;entryDy=0;" edge="1" parent="WIyWlLk6GJQsqaUBKTNV-1" source="mra5QQwehXixs7kkUrkd-5" target="mra5QQwehXixs7kkUrkd-3">
          <mxGeometry relative="1" as="geometry" />
        </mxCell>
        <mxCell id="mra5QQwehXixs7kkUrkd-5" value="&lt;div&gt;Preprocessing&lt;/div&gt;" style="ellipse;whiteSpace=wrap;html=1;" vertex="1" parent="WIyWlLk6GJQsqaUBKTNV-1">
          <mxGeometry x="585" y="240" width="140" height="70" as="geometry" />
        </mxCell>
        <mxCell id="mra5QQwehXixs7kkUrkd-6" value="" style="edgeStyle=orthogonalEdgeStyle;rounded=0;orthogonalLoop=1;jettySize=auto;html=1;" edge="1" parent="WIyWlLk6GJQsqaUBKTNV-1" source="mra5QQwehXixs7kkUrkd-1" target="mra5QQwehXixs7kkUrkd-5">
          <mxGeometry relative="1" as="geometry">
            <mxPoint x="650" y="160" as="sourcePoint" />
            <mxPoint x="650" y="260" as="targetPoint" />
          </mxGeometry>
        </mxCell>
        <mxCell id="mra5QQwehXixs7kkUrkd-12" style="edgeStyle=orthogonalEdgeStyle;rounded=0;orthogonalLoop=1;jettySize=auto;html=1;" edge="1" parent="WIyWlLk6GJQsqaUBKTNV-1" source="mra5QQwehXixs7kkUrkd-8" target="mra5QQwehXixs7kkUrkd-10">
          <mxGeometry relative="1" as="geometry" />
        </mxCell>
        <mxCell id="mra5QQwehXixs7kkUrkd-8" value="&lt;div&gt;Dynamic Browsing&lt;/div&gt;" style="ellipse;whiteSpace=wrap;html=1;" vertex="1" parent="WIyWlLk6GJQsqaUBKTNV-1">
          <mxGeometry x="85" y="240" width="140" height="70" as="geometry" />
        </mxCell>
        <mxCell id="mra5QQwehXixs7kkUrkd-14" style="edgeStyle=orthogonalEdgeStyle;rounded=0;orthogonalLoop=1;jettySize=auto;html=1;" edge="1" parent="WIyWlLk6GJQsqaUBKTNV-1" source="mra5QQwehXixs7kkUrkd-10" target="mra5QQwehXixs7kkUrkd-11">
          <mxGeometry relative="1" as="geometry" />
        </mxCell>
        <mxCell id="mra5QQwehXixs7kkUrkd-10" value="&lt;div&gt;View&lt;/div&gt;" style="ellipse;whiteSpace=wrap;html=1;" vertex="1" parent="WIyWlLk6GJQsqaUBKTNV-1">
          <mxGeometry x="210" y="460" width="140" height="70" as="geometry" />
        </mxCell>
        <mxCell id="mra5QQwehXixs7kkUrkd-11" value="Share / Download" style="ellipse;whiteSpace=wrap;html=1;" vertex="1" parent="WIyWlLk6GJQsqaUBKTNV-1">
          <mxGeometry x="585" y="460" width="140" height="70" as="geometry" />
        </mxCell>
      </root>
    </mxGraphModel>
  </diagram>
</mxfile>
